<svg width="43" height="28" viewBox="0 0 43 28" fill="none" xmlns="http://www.w3.org/2000/svg">
<path d="M9.14722 3.05038C9.14722 2.13963 9.14722 1.68425 9.32446 1.3364C9.48037 1.03041 9.72914 0.781637 10.0351 0.625729C10.383 0.448486 10.8384 0.448486 11.7491 0.448486H35.3006C35.6522 0.448486 35.8281 0.448486 35.9957 0.4842C36.1443 0.515881 36.2878 0.568248 36.4219 0.639773C36.5731 0.720403 36.7076 0.833651 36.9766 1.06015L40.3238 3.87881C41.1364 4.56307 41.5426 4.90521 41.6911 5.3139C41.8213 5.67251 41.8213 6.0655 41.6911 6.42412C41.5427 6.83281 41.1364 7.17495 40.3238 7.85923L36.9766 10.678C36.7076 10.9045 36.5731 11.0178 36.4219 11.0984C36.2878 11.1699 36.1443 11.2223 35.9956 11.254C35.8281 11.2897 35.6522 11.2897 35.3006 11.2897H11.7491C10.8384 11.2897 10.383 11.2897 10.0351 11.1124C9.72914 10.9565 9.48037 10.7078 9.32446 10.4018C9.14722 10.0539 9.14722 9.59854 9.14722 8.68779V3.05038Z" fill="#222222"/>
<path d="M33.5399 19.3123C33.5399 18.4016 33.5399 17.9462 33.3627 17.5984C33.2068 17.2924 32.958 17.0436 32.652 16.8877C32.3041 16.7104 31.8488 16.7104 30.938 16.7104H7.38652C7.03489 16.7104 6.85907 16.7104 6.69148 16.7462C6.54282 16.7778 6.39933 16.8302 6.26521 16.9017C6.11402 16.9824 5.97953 17.0956 5.71056 17.3221L2.36336 20.1408C1.55078 20.825 1.14449 21.1672 0.99606 21.5759C0.865818 21.9345 0.865815 22.3275 0.996051 22.6861C1.14448 23.0948 1.55076 23.4369 2.36333 24.1212L5.71056 26.94C5.97953 27.1665 6.11401 27.2797 6.26521 27.3604C6.39933 27.4319 6.54282 27.4842 6.69149 27.5159C6.85908 27.5516 7.0349 27.5516 7.38654 27.5516H30.938C31.8488 27.5516 32.3041 27.5516 32.652 27.3744C32.958 27.2185 33.2068 26.9697 33.3627 26.6637C33.5399 26.3159 33.5399 25.8605 33.5399 24.9498V19.3123Z" fill="#222222"/>
</svg>
