<svg width="100%" height="height" viewBox="0 0 91 26" fill="none" xmlns="http://www.w3.org/2000/svg">
<path d="M4.5 7.6135C4.5 7.16545 4.5 6.94143 4.58719 6.7703C4.66389 6.61977 4.78628 6.49739 4.93681 6.42069C5.10794 6.3335 5.33196 6.3335 5.78 6.3335H17.3662C17.5392 6.3335 17.6257 6.3335 17.7081 6.35107C17.7812 6.36665 17.8518 6.39241 17.9178 6.4276C17.9922 6.46727 18.0583 6.52298 18.1907 6.6344L19.8373 8.02104C20.2371 8.35767 20.437 8.52598 20.51 8.72704C20.574 8.90346 20.574 9.09679 20.51 9.27321C20.437 9.47427 20.2371 9.64259 19.8373 9.97922L18.1907 11.3659C18.0583 11.4773 17.9922 11.5331 17.9178 11.5727C17.8518 11.6079 17.7812 11.6337 17.7081 11.6493C17.6257 11.6668 17.5392 11.6668 17.3662 11.6668H5.78C5.33196 11.6668 5.10794 11.6668 4.93681 11.5796C4.78628 11.5029 4.66389 11.3806 4.58719 11.23C4.5 11.0589 4.5 10.8349 4.5 10.3868V7.6135Z" fill="black"/>
<path d="M16.5 15.6135C16.5 15.1655 16.5 14.9414 16.4128 14.7703C16.3361 14.6198 16.2137 14.4974 16.0632 14.4207C15.8921 14.3335 15.668 14.3335 15.22 14.3335H3.63382C3.46083 14.3335 3.37434 14.3335 3.2919 14.3511C3.21876 14.3667 3.14817 14.3924 3.08219 14.4276C3.00781 14.4673 2.94165 14.523 2.80933 14.6344L1.16267 16.021C0.762924 16.3577 0.56305 16.526 0.490029 16.727C0.425957 16.9035 0.425956 17.0968 0.490025 17.2732C0.563042 17.4743 0.762914 17.6426 1.16266 17.9792L2.80933 19.3659C2.94165 19.4773 3.00781 19.5331 3.08219 19.5727C3.14817 19.6079 3.21876 19.6337 3.2919 19.6493C3.37435 19.6668 3.46084 19.6668 3.63383 19.6668H15.22C15.668 19.6668 15.8921 19.6668 16.0632 19.5796C16.2137 19.5029 16.3361 19.3806 16.4128 19.23C16.5 19.0589 16.5 18.8349 16.5 18.3868V15.6135Z" fill="black"/>
<path d="M41.87 10.462C41.584 8.966 40.44 6.722 37.162 6.722C33.422 6.722 31.86 9.956 31.86 13.124C31.86 16.314 33.422 19.548 37.162 19.548C40.462 19.548 41.738 17.304 41.87 15.324H43.85C43.498 18.8 41.034 21.308 37.162 21.308C32.85 21.308 29.88 17.876 29.88 13.124C29.88 8.394 32.85 4.962 37.162 4.962C41.012 4.962 43.476 7.47 43.85 10.462H41.87ZM46.9077 7.602C46.4237 7.602 45.8077 7.228 45.8077 6.546C45.8077 5.864 46.4237 5.49 46.9077 5.49C47.4137 5.49 48.0077 5.864 48.0077 6.546C48.0077 7.228 47.4137 7.602 46.9077 7.602ZM46.0277 9.78H47.7877V21H46.0277V9.78ZM55.3328 9.472C55.7508 9.472 56.0588 9.494 56.3668 9.538V11.298H56.3228C53.8808 10.902 52.1868 12.618 52.1868 15.016V21H50.4268V9.78H52.1868V12.002H52.2308C52.8248 10.528 53.7268 9.472 55.3328 9.472ZM65.5021 13.828C65.4141 12.596 64.5781 11.012 62.3341 11.012C59.6721 11.012 58.6601 13.278 58.6601 15.39C58.6601 17.502 59.6721 19.768 62.3341 19.768C64.6001 19.768 65.4141 18.206 65.5021 16.864H67.2621C67.1081 19.416 65.1061 21.308 62.3341 21.308C59.0561 21.308 56.9001 18.91 56.9001 15.39C56.9001 11.87 59.0561 9.472 62.3341 9.472C65.1061 9.472 66.9981 11.32 67.2621 13.828H65.5021ZM76.3823 9.78H78.1423V21H76.3823V19.658H76.3383C75.7443 20.45 74.5563 21.308 72.6423 21.308C70.5963 21.308 68.8803 20.186 68.8803 17.612V9.78H70.6403V17.172C70.6403 18.624 71.3223 19.768 73.0823 19.768C75.0623 19.768 76.3823 18.514 76.3823 16.776V9.78ZM81.6694 7.602C81.1854 7.602 80.5694 7.228 80.5694 6.546C80.5694 5.864 81.1854 5.49 81.6694 5.49C82.1754 5.49 82.7694 5.864 82.7694 6.546C82.7694 7.228 82.1754 7.602 81.6694 7.602ZM80.7894 9.78H82.5494V21H80.7894V9.78ZM90.0725 11.32H87.8725V18.074C87.8725 19.35 88.5765 19.57 90.0725 19.46V21C89.6765 21.088 89.2145 21.132 88.7525 21.132C87.2565 21.132 86.1125 20.538 86.1125 18.25V11.32H84.4625V9.78H86.1125V6.04H87.8725V9.78H90.0725V11.32Z" fill="black"/>
</svg>
