<svg width="16" height="14" viewBox="0 0 16 14" fill="none" xmlns="http://www.w3.org/2000/svg">
<path fill-rule="evenodd" clip-rule="evenodd" d="M6.6884 9.68562H6.7104H8.26644C8.53495 9.68562 8.7527 9.46788 8.7527 9.19936C8.7527 8.93085 8.53495 8.7131 8.26644 8.7131H6.7104C5.61305 8.7131 4.81929 8.71271 4.19499 8.66175C3.57639 8.61118 3.16714 8.51335 2.83104 8.34208C2.19058 8.0158 1.66985 7.49505 1.34352 6.85458C1.17227 6.51849 1.07445 6.10923 1.02391 5.49063C0.972902 4.86634 0.972522 4.07257 0.972522 2.97522V1.41918C0.972522 1.15063 0.754814 0.932922 0.486261 0.932922C0.217709 0.932922 0 1.15063 0 1.41918V2.97522V2.99723C0 4.06794 -2.53605e-08 4.90132 0.0546168 5.56982C0.11007 6.24857 0.224244 6.80005 0.476993 7.2961C0.896568 8.11957 1.56606 8.78906 2.38953 9.2086C2.88557 9.46136 3.43705 9.57553 4.1158 9.63097C4.7843 9.68562 5.61769 9.68562 6.6884 9.68562Z" fill="black"/>
<path d="M5.66321 9.20557L14.539 9.20557" stroke="black" stroke-width="0.922159" stroke-linecap="square" stroke-linejoin="round"/>
<path d="M10.5621 5.34486L15 9.20597L10.5621 13.0671" stroke="black" stroke-width="0.922159" stroke-linecap="square"/>
</svg>
