<svg width="16" height="16" viewBox="0 0 16 16" fill="none" xmlns="http://www.w3.org/2000/svg">
<path fill-rule="evenodd" clip-rule="evenodd" d="M4.41666 2.00012C4.61557 2.00012 4.80633 2.07914 4.94699 2.21979C5.08764 2.36044 5.16666 2.55121 5.16666 2.75012V3.50012H5.91666C6.11557 3.50012 6.30633 3.57914 6.44699 3.71979C6.58764 3.86044 6.66666 4.05121 6.66666 4.25012C6.66666 4.44903 6.58764 4.6398 6.44699 4.78045C6.30633 4.9211 6.11557 5.00012 5.91666 5.00012H5.16666V5.75012C5.16666 5.94903 5.08764 6.1398 4.94699 6.28045C4.80633 6.4211 4.61557 6.50012 4.41666 6.50012C4.21774 6.50012 4.02698 6.4211 3.88633 6.28045C3.74567 6.1398 3.66666 5.94903 3.66666 5.75012V5.00012H2.91666C2.71774 5.00012 2.52698 4.9211 2.38633 4.78045C2.24567 4.6398 2.16666 4.44903 2.16666 4.25012C2.16666 4.05121 2.24567 3.86044 2.38633 3.71979C2.52698 3.57914 2.71774 3.50012 2.91666 3.50012H3.66666V2.75012C3.66666 2.55121 3.74567 2.36044 3.88633 2.21979C4.02698 2.07914 4.21774 2.00012 4.41666 2.00012ZM4.41666 9.50012C4.61557 9.50012 4.80633 9.57914 4.94699 9.71979C5.08764 9.86044 5.16666 10.0512 5.16666 10.2501V11.0001H5.91666C6.11557 11.0001 6.30633 11.0791 6.44699 11.2198C6.58764 11.3604 6.66666 11.5512 6.66666 11.7501C6.66666 11.949 6.58764 12.1398 6.44699 12.2805C6.30633 12.4211 6.11557 12.5001 5.91666 12.5001H5.16666V13.2501C5.16666 13.449 5.08764 13.6398 4.94699 13.7805C4.80633 13.9211 4.61557 14.0001 4.41666 14.0001C4.21774 14.0001 4.02698 13.9211 3.88633 13.7805C3.74567 13.6398 3.66666 13.449 3.66666 13.2501V12.5001H2.91666C2.71774 12.5001 2.52698 12.4211 2.38633 12.2805C2.24567 12.1398 2.16666 11.949 2.16666 11.7501C2.16666 11.5512 2.24567 11.3604 2.38633 11.2198C2.52698 11.0791 2.71774 11.0001 2.91666 11.0001H3.66666V10.2501C3.66666 10.0512 3.74567 9.86044 3.88633 9.71979C4.02698 9.57914 4.21774 9.50012 4.41666 9.50012ZM9.66666 2.00012C9.83217 2.00007 9.99306 2.05477 10.1242 2.1557C10.2554 2.25663 10.3495 2.39812 10.3919 2.55812L11.2762 5.90012L13.7917 7.35062C13.9057 7.41645 14.0003 7.51113 14.0662 7.62514C14.132 7.73915 14.1666 7.86848 14.1666 8.00012C14.1666 8.13177 14.132 8.2611 14.0662 8.37511C14.0003 8.48912 13.9057 8.58379 13.7917 8.64962L11.2762 10.1009L10.3912 13.4421C10.3487 13.602 10.2546 13.7433 10.1235 13.8441C9.99242 13.945 9.83167 13.9996 9.66628 13.9996C9.5009 13.9996 9.34015 13.945 9.20905 13.8441C9.07795 13.7433 8.98386 13.602 8.94141 13.4421L8.05716 10.1001L5.54166 8.64962C5.42765 8.58379 5.33298 8.48912 5.26716 8.37511C5.20134 8.2611 5.16669 8.13177 5.16669 8.00012C5.16669 7.86848 5.20134 7.73915 5.26716 7.62514C5.33298 7.51113 5.42765 7.41645 5.54166 7.35062L8.05716 5.89937L8.94216 2.55812C8.9845 2.39824 9.07849 2.25685 9.20953 2.15593C9.34056 2.05501 9.50127 2.00023 9.66666 2.00012Z" fill="black"/>
</svg>
